<?xml version="1.0" encoding="utf-8"?>
<!-- Generator: Adobe Illustrator 21.0.0, SVG Export Plug-In . SVG Version: 6.00 Build 0)  -->
<svg version="1.1" id="Layer_1" xmlns="http://www.w3.org/2000/svg" xmlns:xlink="http://www.w3.org/1999/xlink" x="0px" y="0px"
	 viewBox="0 0 141.7 141.7" style="enable-background:new 0 0 141.7 141.7;" xml:space="preserve">
<g id="Cm6ZBD.tif">
	<g>
		<path d="M138.5,72.6c-0.3,0.5-0.7,0.9-1,1.4c-0.4,0.2-0.7,0.4-1.1,0.6c-26.1,17.9-52.1,35.7-78.2,53.6c-1.2,0.8-2.3,1.3-3.8,0.9
			c-0.1-0.1-0.2-0.1-0.2-0.2c-0.5-0.9-1-1.8-1.4-2.8c-1.7-4.2-3.4-8.5-5-12.7c-2.2-5.5-4.4-11.1-6.6-16.6c-10.4-0.3-20.7-0.6-31-0.9
			c-1,0-1.9-0.2-2.9-0.3c-0.1-0.1-0.2-0.1-0.2-0.2C6,94,6.6,92.7,7.3,91.2C12.7,80,17.9,68.7,23.2,57.5c0.5-1,0.5-1.8,0-2.7
			C16.8,42.1,10.4,29.5,4,16.8c-0.4-0.9-0.5-1.9-0.8-2.9c0.3-0.5,0.7-0.9,1-1.4c1,0.1,2.1-0.2,3,0.2c12.9,5.6,25.8,11.3,38.7,17
			C62.2,36.9,78.6,44,95,51.2c13.8,6,27.5,12.1,41.3,18.1C137.8,70,138.6,70.9,138.5,72.6z M56.9,123.2
			c23.7-16.2,47.2-32.3,70.7-48.4c0-0.1-0.1-0.2-0.1-0.3c-29.7,0.5-59.5,1-89.3,1.5C44.5,91.7,50.7,107.4,56.9,123.2z M117.8,66.7
			c0-0.1,0-0.1,0-0.2C82.3,51,46.8,35.4,10.9,19.6c0.3,0.8,0.5,1.2,0.7,1.6c5.3,10.5,10.6,20.9,15.8,31.4c0.5,0.9,1,1.3,2,1.4
			c29,4.2,58,8.4,87,12.6C116.9,66.7,117.4,66.7,117.8,66.7z M104.2,70c0-0.1,0-0.2,0-0.2c-0.4-0.1-0.7-0.1-1.1-0.2
			c-24.7-3.6-49.4-7.1-74-10.8c-1-0.1-1.4,0.2-1.8,1c-2.8,6-5.6,12.1-8.5,18.1c-1.1,2.3-2.1,4.6-3.2,6.8c0.5-0.1,0.9-0.3,1.2-0.6
			c5.1-3.9,10.2-7.8,15.2-11.7c1.1-0.9,2.3-1.3,3.7-1.3c18.7-0.3,37.4-0.6,56-0.9C96,70.1,100.1,70.1,104.2,70z M16.2,91
			c0,0.1,0.1,0.2,0.1,0.3c7.6,0.2,15.2,0.4,23.1,0.7c-1.9-4.9-3.8-9.6-5.7-14.5C27.7,82.1,21.9,86.6,16.2,91z"/>
	</g>
</g>
</svg>
