<?xml version="1.0" encoding="utf-8"?>
<!-- Generator: Adobe Illustrator 21.0.0, SVG Export Plug-In . SVG Version: 6.00 Build 0)  -->
<svg version="1.1" id="Layer_1" xmlns="http://www.w3.org/2000/svg" xmlns:xlink="http://www.w3.org/1999/xlink" x="0px" y="0px"
	 viewBox="0 0 141.7 141.7" style="enable-background:new 0 0 141.7 141.7;" xml:space="preserve">
<style type="text/css">
	.st0{fill:#29AAE2;}
	.st1{fill:#FFFFFF;}
</style>
<g>
	<path class="st0" d="M72,119.4c-12.7,0-25.5,0.1-38.2,0c-19.3-0.1-33.4-14.9-31.9-33.7c0.9-11.8,7-20.4,17.7-25.6
		c2.1-1,3-2.1,3.2-4.5C24.4,37.3,38.1,22.7,59,22.3C68.7,22.2,77.3,26,84.2,33c1.4,1.4,2.5,1.7,4.5,1.1c17.9-5.4,34.4,7.2,33.9,25.9
		c-0.1,2.2,0.6,3.3,2.4,4.3c12.1,7.3,17.5,20.5,13.9,33.7c-3.6,13-15.1,21.4-29.4,21.4C97,119.4,84.5,119.4,72,119.4z"/>
	<path class="st1" d="M63.6,84.9c7-7,13.3-13.4,19.7-19.7c1.6-1.6,3.2-3.3,5-4.9c2.1-1.9,4.5-2,6.6-0.1c2.2,2,2.2,4.5,0.5,6.9
		c-0.5,0.7-1.1,1.2-1.7,1.8c-8.3,8.3-16.5,16.5-24.8,24.8c-4,4-6,4-9.9,0.1C55,89.9,51.1,86,47.2,82c-2.6-2.7-2.8-5.5-0.7-7.7
		c2-2.1,5.1-2,7.6,0.6C57.3,78.1,60.3,81.4,63.6,84.9z"/>
</g>
</svg>
